# xmcd CD database file
#
# Track frame offsets:
#	150
#	22752
#	43832
#	63832
#	83356
#	99868
#	122226
#	141411
#	160803
#
# Disc length: 2208 seconds
#
# Revision: 1
# Processed by: cddbd v1.5.2PL0 Copyright (c) Steve Scherf et al.
# Submitted via: CDex 1.51
#
DISCID=66089e09
DTITLE=Juan Esteban Cuacci - Azul Noche - Strings and Piano Jazz Live
DYEAR=2003
DGENRE=Jazz
TTITLE0=Verano Porteno
TTITLE1=Zamba Del Laurel
TTITLE2=Se Que Llegas
TTITLE3=A La Luna Nueva
TTITLE4=Quieres Un Mate
TTITLE5=Invierno Porteno
TTITLE6=Nana Para Javier
TTITLE7=Azul Noche
TTITLE8=Gato
EXTD=YEAR: 2003
EXTT0=
EXTT1=
EXTT2=
EXTT3=
EXTT4=
EXTT5=
EXTT6=
EXTT7=
EXTT8=
PLAYORDER=
